<svg width="24" height="24" viewBox="0 0 24 24" fill="none" xmlns="http://www.w3.org/2000/svg">
  <!-- Main bag body -->
  <path d="M6 6.5L7.5 21h11L20 6.5L13 4.5V2.5c0-0.5-0.5-1-1-1s-1 0.5-1 1v2L6 6.5z" fill="#95BF47"/>
  <!-- Right side shadow -->
  <path d="M18.5 6.5L20 6.5L18.5 21h-3L18.5 6.5z" fill="#5E8E3E"/>
  <!-- Handle -->
  <path d="M10 4c0-1.5 0.9-2.5 2-2.5s2 1 2 2.5" stroke="#95BF47" stroke-width="1.2" fill="none"/>
  <path d="M10 4c0-1.5 0.9-2.5 2-2.5s2 1 2 2.5" stroke="#5E8E3E" stroke-width="1.2" fill="none" stroke-dasharray="0 6.5 10"/>
  <!-- White S -->
  <path d="M13.5 9.5c0-0.8-0.7-1.3-1.5-1.3-1.2 0-2.2 0.8-2.2 2 0 2.2 3.5 1.8 3.5 3.5 0 0.8-0.7 1.5-1.8 1.5-0.9 0-1.7-0.5-1.7-0.5" stroke="white" stroke-width="1.5" stroke-linecap="round" fill="none"/>
</svg>
