<svg width="24" height="24" viewBox="0 0 24 24" fill="none" xmlns="http://www.w3.org/2000/svg">
  <circle cx="12" cy="12" r="3" fill="#000"/>
  <path d="M12 5a7 7 0 0 1 7 7" stroke="#00F2EA" stroke-width="2" stroke-linecap="round"/>
  <path d="M12 5a7 7 0 0 0-7 7" stroke="#FF0050" stroke-width="2" stroke-linecap="round"/>
  <path d="M12 1a11 11 0 0 1 11 11" stroke="#00F2EA" stroke-width="2" stroke-linecap="round"/>
  <path d="M12 1a11 11 0 0 0-11 11" stroke="#FF0050" stroke-width="2" stroke-linecap="round"/>
  <path d="M12 19a7 7 0 0 0 7-7" stroke="#00F2EA" stroke-width="2" stroke-linecap="round"/>
  <path d="M12 19a7 7 0 0 1-7-7" stroke="#FF0050" stroke-width="2" stroke-linecap="round"/>
  <path d="M12 23a11 11 0 0 0 11-11" stroke="#00F2EA" stroke-width="2" stroke-linecap="round"/>
  <path d="M12 23a11 11 0 0 1-11-11" stroke="#FF0050" stroke-width="2" stroke-linecap="round"/>
</svg>
