<svg width="24" height="24" viewBox="0 0 24 24" fill="none" xmlns="http://www.w3.org/2000/svg">
  <path d="M19.321 5.562a5.124 5.124 0 0 1-.443-.258 6.228 6.228 0 0 1-1.137-.966c-.849-.971-1.166-1.956-1.282-2.645h.004c-.097-.573-.057-.943-.052-.943h-3.738v14.065c0 .188 0 .373-.009.555 0 .024-.002.047-.004.073 0 .011 0 .022-.002.033v.011a3.093 3.093 0 0 1-1.533 2.392 3.019 3.019 0 0 1-1.578.422 3.074 3.074 0 0 1-3.074-3.086 3.074 3.074 0 0 1 3.074-3.086c.32 0 .628.051.917.145l.005-3.836a6.928 6.928 0 0 0-5.594 2.027 7.27 7.27 0 0 0-1.596 2.576 7.027 7.027 0 0 0 1.108 6.461 7.137 7.137 0 0 0 1.481 1.517 6.963 6.963 0 0 0 4.401 1.548c.499 0 .994-.052 1.478-.156a6.91 6.91 0 0 0 2.924-1.392 7.033 7.033 0 0 0 2.503-5.39l-.021-8.41a9.088 9.088 0 0 0 2.193 1.356 8.9 8.9 0 0 0 1.974.546V5.749a5.286 5.286 0 0 1-1.598-.187Z" fill="#000"/>
</svg>
